<!-- icon666.com - MILLIONS vector ICONS FREE --><svg version="1.1" id="Capa_1" xmlns="http://www.w3.org/2000/svg" xmlns:xlink="http://www.w3.org/1999/xlink" x="0px" y="0px" viewBox="0 0 469.333 469.333" style="enable-background:new 0 0 469.333 469.333;" xml:space="preserve"><g><g><path d="M426.667,0h-384C19.146,0,0,19.135,0,42.667v384c0,23.531,19.146,42.667,42.667,42.667h384 c23.521,0,42.667-19.135,42.667-42.667v-384C469.333,19.135,450.188,0,426.667,0z M384,394.667 c0,5.896-4.771,10.667-10.667,10.667h-64c-5.896,0-10.667-4.771-10.667-10.667V223.396l-57.792,41.281 c-3.708,2.646-8.708,2.646-12.417,0l-57.792-41.281v171.271c0,5.896-4.771,10.667-10.667,10.667H96 c-5.896,0-10.667-4.771-10.667-10.667v-320c0-4.063,2.313-7.771,5.958-9.573c3.667-1.771,8-1.354,11.208,1.115l132.167,101.667 L366.833,66.208c3.208-2.469,7.563-2.875,11.208-1.115c3.646,1.802,5.958,5.51,5.958,9.573V394.667z"></path></g></g></svg>